<svg xmlns="http://www.w3.org/2000/svg" viewBox="0 0 600 500" fill="none">
  <rect x="50" y="30" width="500" height="350" rx="16" fill="#fff" stroke="#e2e8f0" stroke-width="2"/>
  <rect x="50" y="30" width="500" height="50" rx="16" fill="#1e293b"/>
  <rect x="65" y="42" width="20" height="26" rx="3" fill="#3b82f6"/>
  <rect x="95" y="48" width="60" height="14" rx="4" fill="#475569"/>
  <rect x="165" y="48" width="45" height="14" rx="4" fill="#475569"/>
  <rect x="220" y="48" width="55" height="14" rx="4" fill="#475569"/>
  <rect x="285" y="48" width="40" height="14" rx="4" fill="#475569"/>
  <rect x="480" y="42" width="55" height="26" rx="13" fill="#3b82f6"/>
  <rect x="70" y="100" width="460" height="120" rx="8" fill="#dbeafe"/>
  <text x="190" y="150" font-family="system-ui" font-size="22" font-weight="bold" fill="#1e293b">Website Impian Anda</text>
  <text x="190" y="175" font-family="system-ui" font-size="12" fill="#64748b">Cepat, responsif, SEO-friendly</text>
  <rect x="190" y="190" width="120" height="28" rx="14" fill="#3b82f6"/>
  <text x="250" y="210" font-family="system-ui" font-size="10" font-weight="bold" fill="#fff" text-anchor="middle">Mulai Sekarang</text>
  <rect x="70" y="240" width="220" height="110" rx="8" fill="#fff" stroke="#e2e8f0"/>
  <rect x="85" y="255" width="190" height="55" rx="4" fill="#f1f5f9"/>
  <rect x="85" y="318" width="130" height="10" rx="2" fill="#1e293b"/>
  <rect x="85" y="332" width="100" height="8" rx="2" fill="#94a3b8"/>
  <rect x="310" y="240" width="220" height="110" rx="8" fill="#fff" stroke="#e2e8f0"/>
  <rect x="325" y="255" width="190" height="55" rx="4" fill="#f1f5f9"/>
  <rect x="325" y="318" width="130" height="10" rx="2" fill="#1e293b"/>
  <rect x="325" y="332" width="100" height="8" rx="2" fill="#94a3b8"/>
  <rect x="70" y="360" width="460" height="50" rx="25" fill="#e2e8f0"/>
  <circle cx="95" cy="385" r="15" fill="#3b82f6"/>
  <rect x="120" y="377" width="80" height="7" rx="3" fill="#94a3b8"/>
  <rect x="120" y="388" width="120" height="6" rx="3" fill="#cbd5e1"/>
  <circle cx="310" cy="385" r="15" fill="#8b5cf6"/>
  <rect x="335" y="377" width="80" height="7" rx="3" fill="#94a3b8"/>
  <rect x="335" y="388" width="120" height="6" rx="3" fill="#cbd5e1"/>
  <circle cx="525" cy="385" r="15" fill="#10b981"/>
  <rect x="420" y="377" width="80" height="7" rx="3" fill="#94a3b8"/>
  <rect x="420" y="388" width="120" height="6" rx="3" fill="#cbd5e1"/>
  <rect x="180" y="400" width="240" height="80" rx="40" fill="#3b82f6" opacity="0.1"/>
</svg>
