<svg xmlns="http://www.w3.org/2000/svg" viewBox="0 0 600 400" fill="none">
  <rect width="600" height="400" fill="#f8fafc"/>
  <rect x="0" y="0" width="600" height="50" fill="#fff" stroke="#e2e8f0"/>
  <rect x="20" y="15" width="100" height="20" rx="4" fill="#1e293b"/>
  <rect x="350" y="18" width="35" height="14" rx="4" fill="#64748b"/>
  <rect x="395" y="18" width="40" height="14" rx="4" fill="#64748b"/>
  <rect x="445" y="18" width="35" height="14" rx="4" fill="#64748b"/>
  <rect x="490" y="18" width="50" height="14" rx="4" fill="#64748b"/>
  <rect x="550" y="14" width="30" height="22" rx="4" fill="#3b82f6"/>
  <rect x="0" y="50" width="420" height="200" rx="0"/>
  <rect x="0" y="50" width="420" height="200" fill="#1e293b"/>
  <text x="30" y="110" font-family="system-ui" font-size="22" font-weight="bold" fill="#fff">Blog & Artikel</text>
  <text x="30" y="135" font-family="system-ui" font-size="12" fill="#94a3b8">Temukan informasi dan tips menarik</text>
  <rect x="30" y="155" width="120" height="32" rx="16" fill="#3b82f6"/>
  <text x="90" y="176" font-family="system-ui" font-size="11" font-weight="bold" fill="#fff" text-anchor="middle">Jelajahi</text>
  <rect x="435" y="60" width="155" height="80" rx="6" fill="#fff" stroke="#e2e8f0"/>
  <rect x="445" y="70" width="40" height="30" rx="2" fill="#e2e8f0"/>
  <rect x="490" y="72" width="90" height="10" rx="2" fill="#1e293b"/>
  <rect x="490" y="86" width="70" height="8" rx="2" fill="#94a3b8"/>
  <rect x="445" y="108" width="135" height="8" rx="2" fill="#e2e8f0"/>
  <rect x="445" y="120" width="120" height="8" rx="2" fill="#e2e8f0"/>
  <rect x="435" y="150" width="155" height="80" rx="6" fill="#fff" stroke="#e2e8f0"/>
  <rect x="445" y="160" width="40" height="30" rx="2" fill="#e2e8f0"/>
  <rect x="490" y="162" width="90" height="10" rx="2" fill="#1e293b"/>
  <rect x="490" y="176" width="70" height="8" rx="2" fill="#94a3b8"/>
  <rect x="445" y="198" width="135" height="8" rx="2" fill="#e2e8f0"/>
  <rect x="445" y="210" width="120" height="8" rx="2" fill="#e2e8f0"/>
  <rect x="15" y="270" width="185" height="115" rx="8" fill="#fff" stroke="#e2e8f0"/>
  <rect x="25" y="280" width="165" height="60" rx="4" fill="#f1f5f9"/>
  <rect x="25" y="348" width="100" height="10" rx="2" fill="#1e293b"/>
  <rect x="25" y="362" width="140" height="8" rx="2" fill="#94a3b8"/>
  <rect x="207" y="270" width="185" height="115" rx="8" fill="#fff" stroke="#e2e8f0"/>
  <rect x="217" y="280" width="165" height="60" rx="4" fill="#f1f5f9"/>
  <rect x="217" y="348" width="100" height="10" rx="2" fill="#1e293b"/>
  <rect x="217" y="362" width="140" height="8" rx="2" fill="#94a3b8"/>
  <rect x="399" y="270" width="185" height="115" rx="8" fill="#fff" stroke="#e2e8f0"/>
  <rect x="409" y="280" width="165" height="60" rx="4" fill="#f1f5f9"/>
  <rect x="409" y="348" width="100" height="10" rx="2" fill="#1e293b"/>
  <rect x="409" y="362" width="140" height="8" rx="2" fill="#94a3b8"/>
</svg>
