<svg xmlns="http://www.w3.org/2000/svg" viewBox="0 0 600 400" fill="none">
  <rect width="600" height="400" fill="#f8fafc"/>
  <rect x="0" y="0" width="600" height="50" fill="#0f172a"/>
  <rect x="20" y="14" width="100" height="22" rx="4" fill="#3b82f6"/>
  <rect x="440" y="18" width="50" height="14" rx="4" fill="#94a3b8"/>
  <rect x="500" y="18" width="40" height="14" rx="4" fill="#94a3b8"/>
  <rect x="550" y="18" width="30" height="14" rx="4" fill="#94a3b8"/>
  <rect x="0" y="50" width="600" height="200" fill="#0f172a"/>
  <text x="300" y="130" font-family="system-ui" font-size="34" font-weight="bold" fill="#fff" text-anchor="middle">Perusahaan Profesional</text>
  <text x="300" y="158" font-family="system-ui" font-size="14" fill="#94a3b8" text-anchor="middle">Solusi Terpercaya untuk Bisnis Anda</text>
  <rect x="230" y="180" width="140" height="36" rx="18" fill="#3b82f6"/>
  <text x="300" y="204" font-family="system-ui" font-size="13" font-weight="bold" fill="#fff" text-anchor="middle">Pelajari Lebih</text>
  <rect x="20" y="270" width="175" height="110" rx="8" fill="#fff" stroke="#e2e8f0"/>
  <rect x="35" y="285" width="24" height="24" rx="4" fill="#dbeafe"/>
  <text x="35" y="325" font-family="system-ui" font-size="11" fill="#64748b">Tentang Kami</text>
  <text x="35" y="342" font-family="system-ui" font-size="9" fill="#94a3b8">Perusahaan terpercaya</text>
  <rect x="212" y="270" width="175" height="110" rx="8" fill="#fff" stroke="#e2e8f0"/>
  <rect x="227" y="285" width="24" height="24" rx="4" fill="#dbeafe"/>
  <text x="227" y="325" font-family="system-ui" font-size="11" fill="#64748b">Layanan</text>
  <text x="227" y="342" font-family="system-ui" font-size="9" fill="#94a3b8">Solusi lengkap bisnis</text>
  <rect x="404" y="270" width="175" height="110" rx="8" fill="#fff" stroke="#e2e8f0"/>
  <rect x="419" y="285" width="24" height="24" rx="4" fill="#dbeafe"/>
  <text x="419" y="325" font-family="system-ui" font-size="11" fill="#64748b">Kontak</text>
  <text x="419" y="342" font-family="system-ui" font-size="9" fill="#94a3b8">Hubungi tim kami</text>
</svg>
