<svg xmlns="http://www.w3.org/2000/svg" viewBox="0 0 600 400" fill="none">
  <rect width="600" height="400" fill="#f8fafc"/>
  <rect x="0" y="0" width="600" height="50" fill="#fff" stroke="#e2e8f0"/>
  <text x="290" y="30" font-family="system-ui" font-size="16" font-weight="bold" fill="#1e293b" text-anchor="middle">Portofolio Kreatif</text>
  <rect x="0" y="50" width="600" height="170" fill="url(#p1)"/>
  <text x="300" y="120" font-family="system-ui" font-size="30" font-weight="bold" fill="#fff" text-anchor="middle">Karya Terbaik Kami</text>
  <text x="300" y="148" font-family="system-ui" font-size="14" fill="rgba(255,255,255,0.7)" text-anchor="middle">Desain, Kreativitas, Inovasi</text>
  <rect x="230" y="170" width="140" height="36" rx="18" fill="#fff"/>
  <text x="300" y="194" font-family="system-ui" font-size="13" font-weight="bold" fill="#1e293b" text-anchor="middle">Lihat Portofolio</text>
  <rect x="15" y="240" width="185" height="140" rx="6" fill="#f1f5f9"/>
  <rect x="25" y="250" width="165" height="80" rx="4" fill="#e2e8f0"/>
  <rect x="25" y="340" width="120" height="12" rx="2" fill="#94a3b8"/>
  <rect x="25" y="356" width="80" height="8" rx="2" fill="#94a3b8"/>
  <rect x="207" y="240" width="185" height="140" rx="6" fill="#f1f5f9"/>
  <rect x="217" y="250" width="165" height="80" rx="4" fill="#e2e8f0"/>
  <rect x="217" y="340" width="120" height="12" rx="2" fill="#94a3b8"/>
  <rect x="217" y="356" width="80" height="8" rx="2" fill="#94a3b8"/>
  <rect x="399" y="240" width="185" height="140" rx="6" fill="#f1f5f9"/>
  <rect x="409" y="250" width="165" height="80" rx="4" fill="#e2e8f0"/>
  <rect x="409" y="340" width="120" height="12" rx="2" fill="#94a3b8"/>
  <rect x="409" y="356" width="80" height="8" rx="2" fill="#94a3b8"/>
  <defs><linearGradient id="p1" x1="0" y1="0" x2="600" y2="220"><stop offset="0" stop-color="#7c3aed"/><stop offset="1" stop-color="#2563eb"/></linearGradient></defs>
</svg>
